<?xml version="1.0" encoding="UTF-8" standalone="no"?>
<!DOCTYPE svg PUBLIC "-//W3C//DTD SVG 1.1//EN"
 "http://www.w3.org/Graphics/SVG/1.1/DTD/svg11.dtd">
<!-- Generated by graphviz version 2.40.1 (20161225.0304)
 -->
<!-- Title: dependencies Pages: 1 -->
<svg width="746pt" height="284pt"
 viewBox="0.00 0.00 746.00 284.00" xmlns="http://www.w3.org/2000/svg" xmlns:xlink="http://www.w3.org/1999/xlink">
<g id="graph0" class="graph" transform="scale(1 1) rotate(0) translate(4 280)">
<title>dependencies</title>
<polygon fill="#ffffff" stroke="transparent" points="-4,4 -4,-280 742,-280 742,4 -4,4"/>
<text text-anchor="start" x="348.0091" y="-42.4" font-family="sans-serif" font-weight="bold" font-size="14.00" fill="#000000">Legend</text>
<polygon fill="#ffffb3" stroke="transparent" points="135,-10 135,-30 155,-30 155,-10 135,-10"/>
<text text-anchor="start" x="158.629" y="-15.4" font-family="sans-serif" font-size="14.00" fill="#000000"> &#160;Declarations</text>
<polygon fill="#8dd3c7" stroke="transparent" points="248,-10 248,-30 268,-30 268,-10 248,-10"/>
<text text-anchor="start" x="271.7251" y="-15.4" font-family="sans-serif" font-size="14.00" fill="#000000"> &#160;Module</text>
<polygon fill="#80b1d3" stroke="transparent" points="334,-10 334,-30 354,-30 354,-10 334,-10"/>
<text text-anchor="start" x="357.7812" y="-15.4" font-family="sans-serif" font-size="14.00" fill="#000000"> &#160;Bootstrap</text>
<polygon fill="#fdb462" stroke="transparent" points="431,-10 431,-30 451,-30 451,-10 431,-10"/>
<text text-anchor="start" x="454.6732" y="-15.4" font-family="sans-serif" font-size="14.00" fill="#000000"> &#160;Providers</text>
<polygon fill="#fb8072" stroke="transparent" points="527,-10 527,-30 547,-30 547,-10 527,-10"/>
<text text-anchor="start" x="550.7258" y="-15.4" font-family="sans-serif" font-size="14.00" fill="#000000"> &#160;Exports</text>
<g id="clust1" class="cluster">
<title>cluster_AppModule</title>
<polygon fill="none" stroke="#000000" stroke-dasharray="1,5" points="8,-70 8,-268 148,-268 148,-70 8,-70"/>
</g>
<g id="clust2" class="cluster">
<title>cluster_AppModule_declarations</title>
<polygon fill="none" stroke="#000000" points="17,-78 17,-130 139,-130 139,-78 17,-78"/>
</g>
<g id="clust6" class="cluster">
<title>cluster_AppModule_bootstrap</title>
<polygon fill="none" stroke="#000000" points="16,-208 16,-260 140,-260 140,-208 16,-208"/>
</g>
<g id="clust8" class="cluster">
<title>cluster_FsAddressModule</title>
<polygon fill="none" stroke="#000000" stroke-dasharray="1,5" points="156,-70 156,-268 730,-268 730,-70 156,-70"/>
</g>
<g id="clust9" class="cluster">
<title>cluster_FsAddressModule_declarations</title>
<polygon fill="none" stroke="#000000" points="566,-78 566,-130 722,-130 722,-78 566,-78"/>
</g>
<g id="clust12" class="cluster">
<title>cluster_FsAddressModule_exports</title>
<polygon fill="none" stroke="#000000" points="389,-208 389,-260 549,-260 549,-208 389,-208"/>
</g>
<g id="clust14" class="cluster">
<title>cluster_FsAddressModule_providers</title>
<polygon fill="none" stroke="#000000" points="164,-78 164,-130 558,-130 558,-78 164,-78"/>
</g>
<!-- AppComponent -->
<g id="node1" class="node">
<title>AppComponent</title>
<polygon fill="#ffffb3" stroke="#000000" points="130.9399,-122 25.0601,-122 25.0601,-86 130.9399,-86 130.9399,-122"/>
<text text-anchor="middle" x="78" y="-99.8" font-family="Times,serif" font-size="14.00" fill="#000000">AppComponent</text>
</g>
<!-- AppModule -->
<g id="node2" class="node">
<title>AppModule</title>
<polygon fill="#8dd3c7" stroke="#000000" points="119.6571,-187 116.6571,-191 95.6571,-191 92.6571,-187 36.3429,-187 36.3429,-151 119.6571,-151 119.6571,-187"/>
<text text-anchor="middle" x="78" y="-164.8" font-family="Times,serif" font-size="14.00" fill="#000000">AppModule</text>
</g>
<!-- AppComponent&#45;&gt;AppModule -->
<g id="edge1" class="edge">
<title>AppComponent&#45;&gt;AppModule</title>
<path fill="none" stroke="#000000" d="M78,-122.1061C78,-122.1061 78,-140.991 78,-140.991"/>
<polygon fill="#000000" stroke="#000000" points="74.5001,-140.9909 78,-150.991 81.5001,-140.991 74.5001,-140.9909"/>
</g>
<!-- AppComponent  -->
<g id="node3" class="node">
<title>AppComponent </title>
<polygon fill="#80b1d3" stroke="#000000" points="132.439,-252 23.561,-252 23.561,-216 132.439,-216 132.439,-252"/>
<text text-anchor="middle" x="78" y="-229.8" font-family="Times,serif" font-size="14.00" fill="#000000">AppComponent </text>
</g>
<!-- AppModule&#45;&gt;AppComponent  -->
<g id="edge2" class="edge">
<title>AppModule&#45;&gt;AppComponent </title>
<path fill="none" stroke="#000000" stroke-dasharray="1,5" d="M78,-187.1061C78,-187.1061 78,-205.991 78,-205.991"/>
<polygon fill="#000000" stroke="#000000" points="74.5001,-205.9909 78,-215.991 81.5001,-205.991 74.5001,-205.9909"/>
</g>
<!-- FsAddressComponent -->
<g id="node4" class="node">
<title>FsAddressComponent</title>
<polygon fill="#ffffb3" stroke="#000000" points="714.4313,-122 573.5687,-122 573.5687,-86 714.4313,-86 714.4313,-122"/>
<text text-anchor="middle" x="644" y="-99.8" font-family="Times,serif" font-size="14.00" fill="#000000">FsAddressComponent</text>
</g>
<!-- FsAddressModule -->
<g id="node5" class="node">
<title>FsAddressModule</title>
<polygon fill="#8dd3c7" stroke="#000000" points="528.1485,-187 525.1485,-191 504.1485,-191 501.1485,-187 409.8515,-187 409.8515,-151 528.1485,-151 528.1485,-187"/>
<text text-anchor="middle" x="469" y="-164.8" font-family="Times,serif" font-size="14.00" fill="#000000">FsAddressModule</text>
</g>
<!-- FsAddressComponent&#45;&gt;FsAddressModule -->
<g id="edge3" class="edge">
<title>FsAddressComponent&#45;&gt;FsAddressModule</title>
<path fill="none" stroke="#000000" d="M658.0431,-122.1289C658.0431,-142.5724 658.0431,-173 658.0431,-173 658.0431,-173 538.2957,-173 538.2957,-173"/>
<polygon fill="#000000" stroke="#000000" points="538.2958,-169.5001 528.2957,-173 538.2957,-176.5001 538.2958,-169.5001"/>
</g>
<!-- FsAddressComponent&#45;&gt;FsAddressModule -->
<g id="edge7" class="edge">
<title>FsAddressComponent&#45;&gt;FsAddressModule</title>
<path fill="none" stroke="#000000" d="M629.9569,-122.2667C629.9569,-140.5552 629.9569,-166 629.9569,-166 629.9569,-166 538.4771,-166 538.4771,-166"/>
<polygon fill="#000000" stroke="#000000" points="538.4772,-162.5001 528.4771,-166 538.4771,-169.5001 538.4772,-162.5001"/>
</g>
<!-- FsAddressComponent&#45;&gt;FsAddressModule -->
<g id="edge11" class="edge">
<title>FsAddressComponent&#45;&gt;FsAddressModule</title>
<path fill="none" stroke="#000000" d="M686.1292,-122.0109C686.1292,-144.4852 686.1292,-180 686.1292,-180 686.1292,-180 538.3315,-180 538.3315,-180"/>
<polygon fill="#000000" stroke="#000000" points="538.3315,-176.5001 528.3315,-180 538.3315,-183.5001 538.3315,-176.5001"/>
</g>
<!-- FsAddressComponent&#45;&gt;FsAddressModule -->
<g id="edge15" class="edge">
<title>FsAddressComponent&#45;&gt;FsAddressModule</title>
<path fill="none" stroke="#000000" d="M601.8708,-122.0091C601.8708,-138.0494 601.8708,-159 601.8708,-159 601.8708,-159 538.4401,-159 538.4401,-159"/>
<polygon fill="#000000" stroke="#000000" points="538.4401,-155.5001 528.4401,-159 538.4401,-162.5001 538.4401,-155.5001"/>
</g>
<!-- FsAddressComponent  -->
<g id="node6" class="node">
<title>FsAddressComponent </title>
<polygon fill="#fb8072" stroke="#000000" points="540.9306,-252 397.0694,-252 397.0694,-216 540.9306,-216 540.9306,-252"/>
<text text-anchor="middle" x="469" y="-229.8" font-family="Times,serif" font-size="14.00" fill="#000000">FsAddressComponent </text>
</g>
<!-- FsAddressModule&#45;&gt;FsAddressComponent  -->
<g id="edge4" class="edge">
<title>FsAddressModule&#45;&gt;FsAddressComponent </title>
<path fill="none" stroke="#000000" stroke-dasharray="5,2" d="M480.8648,-187.1061C480.8648,-187.1061 480.8648,-205.991 480.8648,-205.991"/>
<polygon fill="#000000" stroke="#000000" points="477.3649,-205.9909 480.8648,-215.991 484.3649,-205.991 477.3649,-205.9909"/>
</g>
<!-- FsAddressModule&#45;&gt;FsAddressComponent  -->
<g id="edge8" class="edge">
<title>FsAddressModule&#45;&gt;FsAddressComponent </title>
<path fill="none" stroke="#000000" stroke-dasharray="5,2" d="M457.1352,-187.1061C457.1352,-187.1061 457.1352,-205.991 457.1352,-205.991"/>
<polygon fill="#000000" stroke="#000000" points="453.6353,-205.9909 457.1352,-215.991 460.6353,-205.991 453.6353,-205.9909"/>
</g>
<!-- FsAddressModule&#45;&gt;FsAddressComponent  -->
<g id="edge12" class="edge">
<title>FsAddressModule&#45;&gt;FsAddressComponent </title>
<path fill="none" stroke="#000000" stroke-dasharray="5,2" d="M433.4056,-187.1061C433.4056,-187.1061 433.4056,-205.991 433.4056,-205.991"/>
<polygon fill="#000000" stroke="#000000" points="429.9057,-205.9909 433.4056,-215.991 436.9057,-205.991 429.9057,-205.9909"/>
</g>
<!-- FsAddressModule&#45;&gt;FsAddressComponent  -->
<g id="edge16" class="edge">
<title>FsAddressModule&#45;&gt;FsAddressComponent </title>
<path fill="none" stroke="#000000" stroke-dasharray="5,2" d="M504.5944,-187.1061C504.5944,-187.1061 504.5944,-205.991 504.5944,-205.991"/>
<polygon fill="#000000" stroke="#000000" points="501.0945,-205.9909 504.5944,-215.991 508.0945,-205.991 501.0945,-205.9909"/>
</g>
<!-- FsAddressService -->
<g id="node7" class="node">
<title>FsAddressService</title>
<ellipse fill="#fdb462" stroke="#000000" cx="469" cy="-104" rx="80.5142" ry="18"/>
<text text-anchor="middle" x="469" y="-99.8" font-family="Times,serif" font-size="14.00" fill="#000000">FsAddressService</text>
</g>
<!-- FsAddressService&#45;&gt;FsAddressModule -->
<g id="edge5" class="edge">
<title>FsAddressService&#45;&gt;FsAddressModule</title>
<path fill="none" stroke="#000000" d="M504.5944,-120.4022C504.5944,-120.4022 504.5944,-140.5366 504.5944,-140.5366"/>
<polygon fill="#000000" stroke="#000000" points="501.0945,-140.5366 504.5944,-150.5366 508.0945,-140.5367 501.0945,-140.5366"/>
</g>
<!-- FsAddressService&#45;&gt;FsAddressModule -->
<g id="edge9" class="edge">
<title>FsAddressService&#45;&gt;FsAddressModule</title>
<path fill="none" stroke="#000000" d="M457.1352,-122.1061C457.1352,-122.1061 457.1352,-140.991 457.1352,-140.991"/>
<polygon fill="#000000" stroke="#000000" points="453.6353,-140.9909 457.1352,-150.991 460.6353,-140.991 453.6353,-140.9909"/>
</g>
<!-- FsAddressService&#45;&gt;FsAddressModule -->
<g id="edge13" class="edge">
<title>FsAddressService&#45;&gt;FsAddressModule</title>
<path fill="none" stroke="#000000" d="M480.8648,-122.1061C480.8648,-122.1061 480.8648,-140.991 480.8648,-140.991"/>
<polygon fill="#000000" stroke="#000000" points="477.3649,-140.9909 480.8648,-150.991 484.3649,-140.991 477.3649,-140.9909"/>
</g>
<!-- FsAddressService&#45;&gt;FsAddressModule -->
<g id="edge17" class="edge">
<title>FsAddressService&#45;&gt;FsAddressModule</title>
<path fill="none" stroke="#000000" d="M433.4056,-120.4022C433.4056,-120.4022 433.4056,-140.5366 433.4056,-140.5366"/>
<polygon fill="#000000" stroke="#000000" points="429.9057,-140.5366 433.4056,-150.5366 436.9057,-140.5367 429.9057,-140.5366"/>
</g>
<!-- FsGoogleMapsService -->
<g id="node8" class="node">
<title>FsGoogleMapsService</title>
<ellipse fill="#fdb462" stroke="#000000" cx="271" cy="-104" rx="98.9955" ry="18"/>
<text text-anchor="middle" x="271" y="-99.8" font-family="Times,serif" font-size="14.00" fill="#000000">FsGoogleMapsService</text>
</g>
<!-- FsGoogleMapsService&#45;&gt;FsAddressModule -->
<g id="edge6" class="edge">
<title>FsGoogleMapsService&#45;&gt;FsAddressModule</title>
<path fill="none" stroke="#000000" d="M330.3987,-118.4506C330.3987,-134.7462 330.3987,-159 330.3987,-159 330.3987,-159 399.8185,-159 399.8185,-159"/>
<polygon fill="#000000" stroke="#000000" points="399.8186,-162.5001 409.8185,-159 399.8185,-155.5001 399.8186,-162.5001"/>
</g>
<!-- FsGoogleMapsService&#45;&gt;FsAddressModule -->
<g id="edge10" class="edge">
<title>FsGoogleMapsService&#45;&gt;FsAddressModule</title>
<path fill="none" stroke="#000000" d="M290.7996,-121.933C290.7996,-140.2439 290.7996,-166 290.7996,-166 290.7996,-166 399.6618,-166 399.6618,-166"/>
<polygon fill="#000000" stroke="#000000" points="399.6619,-169.5001 409.6618,-166 399.6618,-162.5001 399.6619,-169.5001"/>
</g>
<!-- FsGoogleMapsService&#45;&gt;FsAddressModule -->
<g id="edge14" class="edge">
<title>FsGoogleMapsService&#45;&gt;FsAddressModule</title>
<path fill="none" stroke="#000000" d="M251.2004,-121.7692C251.2004,-142.2134 251.2004,-173 251.2004,-173 251.2004,-173 399.773,-173 399.773,-173"/>
<polygon fill="#000000" stroke="#000000" points="399.773,-176.5001 409.773,-173 399.773,-169.5001 399.773,-176.5001"/>
</g>
<!-- FsGoogleMapsService&#45;&gt;FsAddressModule -->
<g id="edge18" class="edge">
<title>FsGoogleMapsService&#45;&gt;FsAddressModule</title>
<path fill="none" stroke="#000000" d="M211.6013,-118.6536C211.6013,-140.7383 211.6013,-180 211.6013,-180 211.6013,-180 399.6244,-180 399.6244,-180"/>
<polygon fill="#000000" stroke="#000000" points="399.6244,-183.5001 409.6244,-180 399.6243,-176.5001 399.6244,-183.5001"/>
</g>
</g>
</svg>
