<?xml version="1.0" encoding="UTF-8" standalone="no"?>
<!DOCTYPE svg PUBLIC "-//W3C//DTD SVG 1.1//EN"
 "http://www.w3.org/Graphics/SVG/1.1/DTD/svg11.dtd">
<!-- Generated by graphviz version 2.40.1 (20161225.0304)
 -->
<!-- Title: dependencies Pages: 1 -->
<svg width="598pt" height="284pt"
 viewBox="0.00 0.00 598.00 284.00" xmlns="http://www.w3.org/2000/svg" xmlns:xlink="http://www.w3.org/1999/xlink">
<g id="graph0" class="graph" transform="scale(1 1) rotate(0) translate(4 280)">
<title>dependencies</title>
<polygon fill="#ffffff" stroke="transparent" points="-4,4 -4,-280 594,-280 594,4 -4,4"/>
<text text-anchor="start" x="274.0091" y="-42.4" font-family="sans-serif" font-weight="bold" font-size="14.00" fill="#000000">Legend</text>
<polygon fill="#ffffb3" stroke="transparent" points="61,-10 61,-30 81,-30 81,-10 61,-10"/>
<text text-anchor="start" x="84.629" y="-15.4" font-family="sans-serif" font-size="14.00" fill="#000000"> &#160;Declarations</text>
<polygon fill="#8dd3c7" stroke="transparent" points="174,-10 174,-30 194,-30 194,-10 174,-10"/>
<text text-anchor="start" x="197.7251" y="-15.4" font-family="sans-serif" font-size="14.00" fill="#000000"> &#160;Module</text>
<polygon fill="#80b1d3" stroke="transparent" points="260,-10 260,-30 280,-30 280,-10 260,-10"/>
<text text-anchor="start" x="283.7812" y="-15.4" font-family="sans-serif" font-size="14.00" fill="#000000"> &#160;Bootstrap</text>
<polygon fill="#fdb462" stroke="transparent" points="357,-10 357,-30 377,-30 377,-10 357,-10"/>
<text text-anchor="start" x="380.6732" y="-15.4" font-family="sans-serif" font-size="14.00" fill="#000000"> &#160;Providers</text>
<polygon fill="#fb8072" stroke="transparent" points="453,-10 453,-30 473,-30 473,-10 453,-10"/>
<text text-anchor="start" x="476.7258" y="-15.4" font-family="sans-serif" font-size="14.00" fill="#000000"> &#160;Exports</text>
<g id="clust1" class="cluster">
<title>cluster_FsAddressModule</title>
<polygon fill="none" stroke="#000000" stroke-dasharray="1,5" points="8,-70 8,-268 582,-268 582,-70 8,-70"/>
</g>
<g id="clust2" class="cluster">
<title>cluster_FsAddressModule_declarations</title>
<polygon fill="none" stroke="#000000" points="418,-78 418,-130 574,-130 574,-78 418,-78"/>
</g>
<g id="clust5" class="cluster">
<title>cluster_FsAddressModule_exports</title>
<polygon fill="none" stroke="#000000" points="241,-208 241,-260 401,-260 401,-208 241,-208"/>
</g>
<g id="clust7" class="cluster">
<title>cluster_FsAddressModule_providers</title>
<polygon fill="none" stroke="#000000" points="16,-78 16,-130 410,-130 410,-78 16,-78"/>
</g>
<!-- FsAddressComponent -->
<g id="node1" class="node">
<title>FsAddressComponent</title>
<polygon fill="#ffffb3" stroke="#000000" points="566.4313,-122 425.5687,-122 425.5687,-86 566.4313,-86 566.4313,-122"/>
<text text-anchor="middle" x="496" y="-99.8" font-family="Times,serif" font-size="14.00" fill="#000000">FsAddressComponent</text>
</g>
<!-- FsAddressModule -->
<g id="node2" class="node">
<title>FsAddressModule</title>
<polygon fill="#8dd3c7" stroke="#000000" points="380.1485,-187 377.1485,-191 356.1485,-191 353.1485,-187 261.8515,-187 261.8515,-151 380.1485,-151 380.1485,-187"/>
<text text-anchor="middle" x="321" y="-164.8" font-family="Times,serif" font-size="14.00" fill="#000000">FsAddressModule</text>
</g>
<!-- FsAddressComponent&#45;&gt;FsAddressModule -->
<g id="edge1" class="edge">
<title>FsAddressComponent&#45;&gt;FsAddressModule</title>
<path fill="none" stroke="#000000" d="M496,-122.1061C496,-141.3391 496,-169 496,-169 496,-169 390.247,-169 390.247,-169"/>
<polygon fill="#000000" stroke="#000000" points="390.2471,-165.5001 380.247,-169 390.247,-172.5001 390.2471,-165.5001"/>
</g>
<!-- FsAddressComponent  -->
<g id="node3" class="node">
<title>FsAddressComponent </title>
<polygon fill="#fb8072" stroke="#000000" points="392.9306,-252 249.0694,-252 249.0694,-216 392.9306,-216 392.9306,-252"/>
<text text-anchor="middle" x="321" y="-229.8" font-family="Times,serif" font-size="14.00" fill="#000000">FsAddressComponent </text>
</g>
<!-- FsAddressModule&#45;&gt;FsAddressComponent  -->
<g id="edge2" class="edge">
<title>FsAddressModule&#45;&gt;FsAddressComponent </title>
<path fill="none" stroke="#000000" stroke-dasharray="5,2" d="M321,-187.1061C321,-187.1061 321,-205.991 321,-205.991"/>
<polygon fill="#000000" stroke="#000000" points="317.5001,-205.9909 321,-215.991 324.5001,-205.991 317.5001,-205.9909"/>
</g>
<!-- FsAddressService -->
<g id="node4" class="node">
<title>FsAddressService</title>
<ellipse fill="#fdb462" stroke="#000000" cx="321" cy="-104" rx="80.5142" ry="18"/>
<text text-anchor="middle" x="321" y="-99.8" font-family="Times,serif" font-size="14.00" fill="#000000">FsAddressService</text>
</g>
<!-- FsAddressService&#45;&gt;FsAddressModule -->
<g id="edge3" class="edge">
<title>FsAddressService&#45;&gt;FsAddressModule</title>
<path fill="none" stroke="#000000" d="M321,-122.1061C321,-122.1061 321,-140.991 321,-140.991"/>
<polygon fill="#000000" stroke="#000000" points="317.5001,-140.9909 321,-150.991 324.5001,-140.991 317.5001,-140.9909"/>
</g>
<!-- FsGoogleMapsService -->
<g id="node5" class="node">
<title>FsGoogleMapsService</title>
<ellipse fill="#fdb462" stroke="#000000" cx="123" cy="-104" rx="98.9955" ry="18"/>
<text text-anchor="middle" x="123" y="-99.8" font-family="Times,serif" font-size="14.00" fill="#000000">FsGoogleMapsService</text>
</g>
<!-- FsGoogleMapsService&#45;&gt;FsAddressModule -->
<g id="edge4" class="edge">
<title>FsGoogleMapsService&#45;&gt;FsAddressModule</title>
<path fill="none" stroke="#000000" d="M123,-122.1061C123,-141.3391 123,-169 123,-169 123,-169 251.5935,-169 251.5935,-169"/>
<polygon fill="#000000" stroke="#000000" points="251.5935,-172.5001 261.5935,-169 251.5934,-165.5001 251.5935,-172.5001"/>
</g>
</g>
</svg>
